<?xml version="1.0" encoding="utf-8"?>
<!-- Generator: Adobe Illustrator 23.0.3, SVG Export Plug-In . SVG Version: 6.00 Build 0)  -->
<svg version="1.1" id="Layer_1" xmlns="http://www.w3.org/2000/svg" xmlns:xlink="http://www.w3.org/1999/xlink" x="0px" y="0px"
	 viewBox="0 0 40 40" style="enable-background:new 0 0 40 40;" xml:space="preserve">
<style type="text/css">
	.st0{fill:#FFFFFF;}
</style>
<g>
	<path class="st0" d="M34.3,31.8c0,0.4,0,0.8-0.1,1.2c-3.2,0-6.5,0-9.7,0c-1.7-2.9-3.8-5.5-5.6-8.3c-1.1-1.5-2.1-3-3.1-4.5
		c-0.1,4.3,0,8.5-0.1,12.8c-3.2,0-6.5,0-9.7,0c0-8.6,0-17.2,0-25.8c3.2,0,6.5-0.1,9.7,0c3.1,4.2,5.9,8.6,8.9,12.8
		c0-4.3,0-8.6,0-12.9c3.2,0,6.4,0,9.6,0C34.3,15.3,34.2,23.5,34.3,31.8z"/>
</g>
</svg>
