<?xml version="1.0" encoding="utf-8"?>
<!-- Generator: Adobe Illustrator 16.0.0, SVG Export Plug-In . SVG Version: 6.00 Build 0)  -->
<!DOCTYPE svg PUBLIC "-//W3C//DTD SVG 1.1//EN" "http://www.w3.org/Graphics/SVG/1.1/DTD/svg11.dtd">
<svg version="1.1" id="Layer_1" xmlns="http://www.w3.org/2000/svg" xmlns:xlink="http://www.w3.org/1999/xlink" x="0px" y="0px"
	 width="165.344px" height="61.333px" viewBox="0 0 165.344 61.333" enable-background="new 0 0 165.344 61.333"
	 xml:space="preserve">
<g>
	<g>
		<g>
			<path fill="#FFFFFF" d="M74.606,22.533c0.966,0,1.666-0.171,2.101-0.514c0.434-0.343,0.65-0.773,0.65-1.292v-0.231
				c0-0.616-0.228-1.075-0.683-1.375c-0.455-0.301-1.116-0.549-1.984-0.746c-0.63-0.14-1.264-0.287-1.9-0.441
				c-0.637-0.154-1.211-0.385-1.722-0.693c-0.512-0.308-0.928-0.724-1.25-1.25c-0.322-0.525-0.482-1.229-0.482-2.11v-0.273
				c0-0.462,0.091-0.941,0.272-1.438c0.182-0.497,0.483-0.956,0.903-1.375s0.977-0.767,1.67-1.04c0.692-0.273,1.55-0.41,2.572-0.41
				c0.84,0,1.645,0.088,2.415,0.263c0.77,0.175,1.54,0.508,2.31,0.998l-1.26,2.079c-0.616-0.392-1.19-0.647-1.722-0.767
				c-0.532-0.119-1.1-0.179-1.701-0.179c-0.477,0-0.89,0.056-1.239,0.168c-0.35,0.112-0.641,0.259-0.871,0.441
				c-0.231,0.182-0.403,0.378-0.515,0.588c-0.112,0.21-0.168,0.42-0.168,0.63v0.252c0,0.364,0.087,0.658,0.263,0.882
				c0.175,0.224,0.409,0.41,0.703,0.557s0.641,0.266,1.039,0.357c0.399,0.091,0.822,0.186,1.271,0.284
				c0.896,0.196,1.648,0.438,2.258,0.725s1.099,0.612,1.47,0.976c0.371,0.364,0.638,0.767,0.798,1.208
				c0.161,0.441,0.242,0.921,0.242,1.439v0.273c0,0.84-0.15,1.543-0.452,2.11c-0.301,0.567-0.71,1.022-1.229,1.365
				c-0.518,0.343-1.112,0.588-1.784,0.735s-1.373,0.22-2.101,0.22c-0.546,0-1.081-0.045-1.606-0.136
				c-0.524-0.091-1.019-0.214-1.48-0.368c-0.462-0.154-0.893-0.339-1.291-0.557c-0.399-0.217-0.746-0.444-1.04-0.682l1.302-2.142
				c0.463,0.392,1.058,0.735,1.785,1.029C72.877,22.386,73.696,22.533,74.606,22.533z"/>
			<path fill="#FFFFFF" d="M74.48,25.198c-0.558,0-1.112-0.047-1.649-0.14c-0.535-0.094-1.046-0.22-1.517-0.377
				c-0.477-0.16-0.925-0.353-1.332-0.575c-0.411-0.223-0.774-0.461-1.077-0.707l-0.17-0.138l1.567-2.579l0.223,0.189
				c0.44,0.373,1.019,0.706,1.718,0.988c0.695,0.281,1.49,0.423,2.363,0.423c0.904,0,1.559-0.155,1.945-0.46
				c0.374-0.296,0.556-0.654,0.556-1.095v-0.231c0-0.532-0.187-0.913-0.57-1.167c-0.427-0.283-1.066-0.521-1.901-0.71
				c-0.631-0.14-1.267-0.288-1.904-0.441c-0.66-0.16-1.263-0.403-1.792-0.723c-0.543-0.326-0.992-0.774-1.334-1.333
				c-0.345-0.562-0.52-1.315-0.52-2.241v-0.273c0-0.489,0.097-1.002,0.288-1.524c0.193-0.528,0.517-1.021,0.961-1.466
				c0.442-0.443,1.033-0.811,1.755-1.095c0.719-0.284,1.615-0.427,2.664-0.427c0.853,0,1.684,0.09,2.471,0.269
				c0.795,0.181,1.599,0.528,2.388,1.03l0.207,0.131l-1.52,2.507l-0.215-0.137c-0.589-0.375-1.142-0.621-1.643-0.733
				c-0.514-0.115-1.067-0.173-1.646-0.173c-0.448,0-0.839,0.053-1.163,0.156c-0.32,0.103-0.587,0.237-0.793,0.399
				c-0.203,0.16-0.354,0.332-0.448,0.509c-0.094,0.175-0.139,0.342-0.139,0.513v0.252c0,0.311,0.068,0.548,0.209,0.728
				c0.151,0.194,0.359,0.358,0.618,0.487c0.275,0.138,0.606,0.251,0.983,0.337c0.398,0.091,0.82,0.186,1.268,0.283
				c0.911,0.199,1.688,0.449,2.312,0.743c0.631,0.297,1.148,0.642,1.538,1.023c0.397,0.39,0.687,0.828,0.858,1.301
				c0.17,0.467,0.257,0.98,0.257,1.524v0.273c0,0.878-0.162,1.627-0.481,2.228c-0.319,0.602-0.761,1.092-1.312,1.456
				c-0.541,0.359-1.169,0.618-1.868,0.771C75.949,25.122,75.224,25.198,74.48,25.198z M69.391,23.144
				c0.243,0.18,0.521,0.355,0.83,0.523c0.382,0.208,0.802,0.389,1.251,0.539c0.447,0.149,0.934,0.27,1.444,0.359
				c1.191,0.207,2.476,0.166,3.61-0.082c0.639-0.14,1.21-0.375,1.7-0.7c0.48-0.317,0.865-0.746,1.146-1.273s0.423-1.198,0.423-1.993
				v-0.273c0-0.485-0.076-0.94-0.227-1.353c-0.146-0.403-0.395-0.778-0.738-1.115c-0.35-0.342-0.821-0.655-1.401-0.928
				c-0.589-0.277-1.331-0.515-2.205-0.707c-0.448-0.098-0.872-0.193-1.272-0.284c-0.416-0.095-0.784-0.222-1.095-0.377
				c-0.326-0.163-0.592-0.374-0.789-0.626c-0.209-0.266-0.315-0.615-0.315-1.036v-0.252c0-0.251,0.066-0.503,0.197-0.748
				c0.127-0.239,0.322-0.463,0.581-0.667c0.252-0.199,0.571-0.361,0.949-0.482c0.373-0.12,0.815-0.18,1.315-0.18
				c0.615,0,1.206,0.062,1.756,0.185c0.494,0.111,1.025,0.334,1.584,0.666l1-1.652c-0.673-0.403-1.353-0.684-2.022-0.836
				c-0.75-0.17-1.544-0.256-2.359-0.256c-0.985,0-1.82,0.132-2.48,0.392c-0.658,0.259-1.191,0.59-1.585,0.984
				c-0.393,0.393-0.677,0.825-0.846,1.285c-0.17,0.467-0.257,0.922-0.257,1.353v0.273c0,0.832,0.149,1.498,0.445,1.979
				c0.3,0.489,0.692,0.881,1.166,1.166c0.486,0.293,1.042,0.517,1.651,0.665c0.636,0.154,1.268,0.301,1.896,0.44
				c0.908,0.206,1.585,0.461,2.068,0.781c0.527,0.349,0.795,0.881,0.795,1.584v0.231c0,0.596-0.251,1.096-0.745,1.487
				c-0.484,0.383-1.222,0.568-2.256,0.568c-0.938,0-1.796-0.154-2.551-0.459c-0.636-0.257-1.181-0.555-1.625-0.889L69.391,23.144z"
				/>
		</g>
		<g>
			<path fill="#FFFFFF" d="M95.123,12.894c0.532,0,1.04,0.091,1.522,0.273c0.483,0.182,0.906,0.455,1.271,0.819
				c0.364,0.364,0.654,0.819,0.872,1.365c0.217,0.546,0.325,1.183,0.325,1.911v7.455h-2.646v-6.909c0-0.518-0.056-0.945-0.168-1.281
				s-0.266-0.599-0.462-0.788s-0.42-0.318-0.672-0.388s-0.518-0.105-0.798-0.105c-0.252,0-0.508,0.039-0.767,0.115
				c-0.259,0.077-0.486,0.21-0.683,0.399s-0.356,0.445-0.482,0.767c-0.126,0.322-0.189,0.721-0.189,1.197v6.993H89.6v-6.951
				c0-0.49-0.057-0.896-0.168-1.218c-0.112-0.322-0.263-0.581-0.452-0.777c-0.188-0.196-0.409-0.333-0.661-0.41
				c-0.252-0.077-0.525-0.115-0.819-0.115c-0.63,0-1.141,0.196-1.533,0.588c-0.392,0.392-0.588,0.987-0.588,1.785v7.098h-2.646
				V13.146h2.499v1.47h0.042c0.279-0.532,0.689-0.952,1.229-1.26c0.538-0.308,1.187-0.462,1.942-0.462
				c0.714,0,1.354,0.161,1.922,0.483c0.566,0.322,0.955,0.749,1.165,1.281c0.406-0.588,0.886-1.029,1.438-1.323
				S94.241,12.894,95.123,12.894z"/>
			<path fill="#FFFFFF" d="M99.363,24.967h-3.146v-7.159c0-0.49-0.052-0.894-0.155-1.202c-0.099-0.297-0.233-0.528-0.398-0.687
				c-0.167-0.162-0.352-0.269-0.564-0.328c-0.435-0.119-0.928-0.139-1.427,0.009c-0.222,0.066-0.412,0.177-0.58,0.339
				c-0.168,0.162-0.311,0.39-0.424,0.678c-0.114,0.292-0.172,0.665-0.172,1.106v7.243H89.35v-7.201c0-0.458-0.052-0.84-0.154-1.137
				c-0.1-0.285-0.232-0.516-0.396-0.685c-0.158-0.165-0.345-0.28-0.555-0.344c-0.228-0.069-0.479-0.104-0.746-0.104
				c-0.566,0-1.01,0.168-1.356,0.515c-0.342,0.342-0.515,0.883-0.515,1.608v7.348h-3.146V12.896h2.999v0.973
				c0.249-0.287,0.549-0.531,0.896-0.73c0.574-0.328,1.27-0.495,2.066-0.495c0.754,0,1.442,0.173,2.045,0.516
				c0.475,0.27,0.839,0.613,1.086,1.024c0.373-0.458,0.801-0.816,1.277-1.069c0.587-0.312,1.351-0.47,2.27-0.47
				c0.56,0,1.102,0.097,1.61,0.289c0.514,0.193,0.971,0.488,1.359,0.876c0.386,0.386,0.698,0.874,0.928,1.449
				c0.228,0.573,0.343,1.247,0.343,2.003V24.967z M96.716,24.467h2.146v-7.205c0-0.693-0.104-1.305-0.308-1.818
				c-0.204-0.512-0.479-0.943-0.816-1.281c-0.338-0.337-0.735-0.593-1.182-0.762c-0.453-0.17-0.936-0.257-1.435-0.257
				c-0.837,0-1.521,0.139-2.035,0.412c-0.515,0.273-0.969,0.692-1.35,1.244l-0.267,0.385l-0.172-0.436
				c-0.19-0.481-0.535-0.859-1.057-1.155c-0.526-0.299-1.132-0.45-1.798-0.45c-0.709,0-1.32,0.145-1.818,0.429
				c-0.495,0.283-0.876,0.673-1.131,1.159l-0.07,0.134h-0.401l-0.042-0.25v-1.22h-1.999v11.071h2.146v-6.848
				c0-0.863,0.223-1.522,0.661-1.962c0.439-0.439,1.015-0.661,1.71-0.661c0.317,0,0.617,0.042,0.893,0.126
				c0.292,0.09,0.551,0.25,0.768,0.476c0.214,0.221,0.385,0.513,0.509,0.868c0.12,0.35,0.182,0.787,0.182,1.301v6.701h2.146v-6.743
				c0-0.504,0.069-0.938,0.207-1.288c0.139-0.356,0.321-0.644,0.541-0.856c0.225-0.216,0.488-0.37,0.785-0.458
				c0.59-0.175,1.181-0.157,1.702-0.011c0.291,0.081,0.553,0.231,0.779,0.449c0.224,0.215,0.4,0.514,0.525,0.889
				c0.12,0.359,0.181,0.816,0.181,1.36V24.467z"/>
		</g>
		<g>
			<path fill="#FFFFFF" d="M105.497,24.885c-1.246,0-2.212-0.283-2.898-0.851c-0.686-0.567-1.028-1.361-1.028-2.383v-0.672
				c0-0.476,0.073-0.914,0.22-1.313c0.147-0.399,0.393-0.746,0.735-1.04s0.795-0.525,1.354-0.693s1.246-0.252,2.059-0.252h2.646
				v-0.441c0-0.714-0.165-1.229-0.493-1.543c-0.329-0.315-0.851-0.472-1.564-0.472c-1.204,0-2.297,0.385-3.276,1.155l-1.302-1.932
				c0.588-0.406,1.253-0.766,1.995-1.082c0.741-0.315,1.609-0.472,2.604-0.472c0.672,0,1.295,0.084,1.869,0.252
				s1.067,0.409,1.48,0.725c0.413,0.315,0.735,0.7,0.966,1.155c0.231,0.455,0.347,0.977,0.347,1.564v8.127h-2.373l-0.042-1.428
				c-0.112,0.252-0.291,0.479-0.535,0.682c-0.245,0.203-0.522,0.371-0.83,0.504c-0.308,0.133-0.63,0.234-0.966,0.304
				C106.126,24.85,105.804,24.885,105.497,24.885z M108.583,19.74H106c-0.7,0-1.187,0.133-1.459,0.399
				c-0.273,0.266-0.41,0.624-0.41,1.071v0.252c0,0.378,0.133,0.672,0.399,0.882c0.266,0.21,0.657,0.315,1.176,0.315
				c1.078,0,1.876-0.259,2.394-0.777c0.238-0.238,0.379-0.494,0.421-0.767s0.063-0.626,0.063-1.061V19.74z"/>
			<path fill="#FFFFFF" d="M105.497,25.135c-1.3,0-2.329-0.306-3.058-0.908c-0.742-0.614-1.119-1.481-1.119-2.576v-0.672
				c0-0.503,0.079-0.974,0.235-1.398c0.162-0.438,0.434-0.823,0.807-1.144c0.368-0.315,0.854-0.565,1.445-0.742
				c0.581-0.174,1.298-0.263,2.131-0.263h2.396v-0.191c0-0.639-0.14-1.098-0.416-1.363c-0.279-0.267-0.747-0.402-1.392-0.402
				c-1.142,0-2.191,0.371-3.122,1.102l-0.211,0.166l-1.591-2.36l0.204-0.14c0.598-0.413,1.284-0.785,2.039-1.106
				c0.769-0.327,1.677-0.492,2.701-0.492c0.692,0,1.345,0.088,1.939,0.262c0.602,0.176,1.127,0.434,1.562,0.766
				c0.441,0.336,0.791,0.754,1.037,1.24c0.248,0.488,0.374,1.052,0.374,1.678v8.377h-2.866l-0.027-0.935
				c-0.046,0.045-0.096,0.089-0.147,0.132c-0.261,0.216-0.561,0.398-0.89,0.542c-0.32,0.138-0.661,0.246-1.015,0.319
				C106.162,25.098,105.82,25.135,105.497,25.135z M105.938,17.932c-0.785,0-1.453,0.081-1.986,0.241
				c-0.524,0.158-0.95,0.374-1.264,0.644c-0.309,0.264-0.532,0.58-0.664,0.937c-0.136,0.369-0.204,0.781-0.204,1.226v0.672
				c0,0.952,0.307,1.669,0.938,2.19c0.637,0.526,1.559,0.793,2.739,0.793c0.289,0,0.597-0.034,0.915-0.1
				c0.319-0.067,0.629-0.165,0.918-0.289c0.285-0.124,0.545-0.281,0.77-0.467c0.213-0.177,0.37-0.376,0.466-0.591l0.446-1.001
				l0.067,2.28h1.88V16.59c0-0.546-0.107-1.034-0.319-1.451c-0.213-0.419-0.514-0.779-0.895-1.069
				c-0.387-0.295-0.857-0.525-1.399-0.684c-0.549-0.16-1.154-0.242-1.799-0.242c-0.956,0-1.8,0.152-2.506,0.452
				c-0.639,0.271-1.225,0.58-1.745,0.919l1.015,1.506c0.967-0.695,2.047-1.047,3.216-1.047c0.777,0,1.361,0.182,1.737,0.542
				c0.379,0.363,0.57,0.943,0.57,1.724v0.691H105.938z M105.707,22.909c-0.573,0-1.021-0.124-1.331-0.369
				c-0.328-0.258-0.494-0.621-0.494-1.078V21.21c0-0.516,0.163-0.937,0.485-1.25c0.324-0.316,0.859-0.47,1.634-0.47h2.833v0.565
				c0,0.453-0.021,0.813-0.065,1.099c-0.05,0.325-0.216,0.63-0.491,0.905C107.713,22.623,106.848,22.909,105.707,22.909z M106,19.99
				c-0.629,0-1.062,0.11-1.284,0.328c-0.226,0.219-0.335,0.511-0.335,0.892v0.252c0,0.3,0.1,0.524,0.304,0.686
				c0.22,0.173,0.563,0.261,1.021,0.261c1.005,0,1.75-0.237,2.217-0.704c0.199-0.199,0.317-0.41,0.351-0.628
				c0.039-0.257,0.06-0.601,0.06-1.022V19.99H106z"/>
		</g>
		<g>
			<path fill="#FFFFFF" d="M120.89,15.519c-0.196-0.084-0.406-0.147-0.631-0.189c-0.224-0.042-0.504-0.063-0.84-0.063
				c-0.364,0-0.703,0.063-1.019,0.189c-0.314,0.126-0.588,0.304-0.818,0.535c-0.231,0.231-0.413,0.504-0.546,0.819
				c-0.134,0.315-0.2,0.661-0.2,1.04v6.867h-2.646V13.146h2.541v1.68h0.042c0.308-0.588,0.717-1.057,1.229-1.407
				c0.511-0.35,1.179-0.525,2.005-0.525c0.294,0,0.589,0.021,0.883,0.063s0.546,0.098,0.756,0.168L120.89,15.519z"/>
			<path fill="#FFFFFF" d="M117.086,24.967h-3.146V12.896h3.041v1.145c0.253-0.323,0.547-0.601,0.879-0.828
				c0.552-0.377,1.273-0.568,2.146-0.568c0.305,0,0.614,0.022,0.918,0.065c0.307,0.044,0.575,0.104,0.8,0.178l0.233,0.078
				l-0.913,2.892l-0.254-0.108c-0.179-0.077-0.373-0.135-0.578-0.173c-0.423-0.08-1.161-0.11-1.72,0.112
				c-0.282,0.113-0.529,0.275-0.734,0.48c-0.207,0.206-0.372,0.455-0.492,0.74c-0.12,0.282-0.181,0.599-0.181,0.942V24.967z
				 M114.441,24.467h2.146V17.85c0-0.411,0.074-0.793,0.22-1.137c0.146-0.344,0.348-0.646,0.6-0.898
				c0.253-0.253,0.557-0.452,0.902-0.59c0.649-0.261,1.493-0.235,1.997-0.14c0.146,0.027,0.289,0.063,0.426,0.108l0.6-1.898
				c-0.143-0.035-0.302-0.065-0.476-0.09c-0.281-0.04-0.566-0.061-0.848-0.061c-0.771,0-1.397,0.162-1.863,0.481
				c-0.476,0.325-0.861,0.768-1.148,1.316l-0.07,0.134h-0.401l-0.042-0.25v-1.43h-2.041V24.467z"/>
		</g>
		<g>
			<path fill="#FFFFFF" d="M124.417,15.33h-1.848v-2.184h1.848v-2.961h2.646v2.961h2.919v2.184h-2.919v6.09
				c0,0.49,0.102,0.812,0.305,0.966c0.202,0.154,0.479,0.231,0.829,0.231c0.266,0,0.528-0.024,0.788-0.073
				c0.259-0.049,0.542-0.137,0.85-0.263l0.421,2.121c-0.238,0.112-0.564,0.221-0.977,0.326c-0.413,0.105-0.879,0.157-1.396,0.157
				c-0.658,0-1.212-0.077-1.659-0.231c-0.448-0.154-0.806-0.378-1.071-0.672s-0.455-0.654-0.567-1.082
				c-0.111-0.427-0.168-0.914-0.168-1.459V15.33z"/>
			<path fill="#FFFFFF" d="M127.882,25.135c-0.683,0-1.269-0.083-1.74-0.245c-0.487-0.168-0.883-0.417-1.176-0.741
				c-0.292-0.323-0.502-0.722-0.624-1.186c-0.116-0.448-0.176-0.96-0.176-1.523V15.58h-1.848v-2.684h1.848V9.935h3.146v2.961h2.919
				v2.684h-2.919v5.84c0,0.394,0.073,0.666,0.206,0.767c0.29,0.222,0.898,0.21,1.419,0.111c0.24-0.045,0.51-0.129,0.802-0.249
				l0.281-0.115l0.518,2.61l-0.177,0.083c-0.252,0.118-0.596,0.233-1.021,0.341C128.91,25.079,128.419,25.135,127.882,25.135z
				 M122.819,15.08h1.848v6.361c0,0.52,0.054,0.99,0.16,1.396c0.101,0.385,0.272,0.714,0.511,0.977
				c0.235,0.26,0.561,0.463,0.967,0.603c0.42,0.144,0.95,0.217,1.578,0.217c0.495,0,0.944-0.05,1.335-0.149
				c0.299-0.076,0.552-0.155,0.753-0.233l-0.323-1.632c-0.218,0.077-0.424,0.133-0.616,0.169c-0.659,0.126-1.398,0.114-1.814-0.205
				c-0.271-0.205-0.403-0.586-0.403-1.165v-6.34h2.919v-1.684h-2.919v-2.961h-2.146v2.961h-1.848V15.08z"/>
		</g>
		<g>
			<path fill="#FFFFFF" d="M74.984,32.776c2.254,0,3.913,0.557,4.978,1.67c1.063,1.113,1.596,2.719,1.596,4.819v2.163
				c0,1.05-0.119,1.978-0.356,2.782c-0.238,0.805-0.62,1.48-1.145,2.027c-0.525,0.546-1.201,0.962-2.027,1.25
				c-0.826,0.287-1.826,0.43-3.003,0.43h-5.313V32.776H74.984z M72.38,45.649h2.247c0.672,0,1.271-0.077,1.795-0.231
				c0.525-0.154,0.967-0.399,1.323-0.735c0.357-0.336,0.63-0.78,0.819-1.333c0.188-0.553,0.283-1.229,0.283-2.026V39.37
				c0-1.596-0.354-2.716-1.061-3.36s-1.761-0.966-3.16-0.966H72.38V45.649z"/>
			<path fill="#FFFFFF" d="M75.026,48.167h-5.563V32.526h5.521c2.314,0,4.05,0.588,5.158,1.747c1.104,1.156,1.665,2.836,1.665,4.992
				v2.163c0,1.068-0.123,2.028-0.366,2.853c-0.249,0.839-0.654,1.556-1.204,2.129c-0.551,0.572-1.267,1.014-2.126,1.313
				C77.261,48.018,76.224,48.167,75.026,48.167z M69.963,47.667h5.063c1.142,0,2.125-0.14,2.921-0.417
				c0.785-0.272,1.434-0.672,1.93-1.187c0.494-0.515,0.859-1.163,1.085-1.924c0.229-0.779,0.346-1.691,0.346-2.711v-2.163
				c0-2.023-0.514-3.587-1.526-4.646c-1.011-1.057-2.624-1.593-4.797-1.593h-5.021V47.667z M74.627,45.899H72.13V34.794h2.497
				c1.457,0,2.577,0.347,3.328,1.031c0.758,0.69,1.143,1.883,1.143,3.545v1.953c0,0.821-0.1,1.53-0.297,2.107
				c-0.202,0.591-0.5,1.073-0.885,1.435c-0.383,0.361-0.862,0.628-1.424,0.792C75.949,45.818,75.322,45.899,74.627,45.899z
				 M72.63,45.399h1.997c0.646,0,1.227-0.074,1.725-0.221c0.485-0.142,0.896-0.37,1.222-0.677c0.325-0.305,0.579-0.72,0.755-1.232
				c0.179-0.525,0.27-1.179,0.27-1.945V39.37c0-1.515-0.329-2.583-0.979-3.175c-0.657-0.598-1.663-0.901-2.992-0.901H72.63V45.399z"
				/>
		</g>
		<g>
			<path fill="#FFFFFF" d="M84.288,31.789h2.771v2.856h-2.771V31.789z M84.35,36.346h2.646v11.571H84.35V36.346z"/>
			<path fill="#FFFFFF" d="M87.247,48.167H84.1V36.096h3.146V48.167z M84.6,47.667h2.146V36.596H84.6V47.667z M87.309,34.895h-3.271
				v-3.356h3.271V34.895z M84.538,34.395h2.271v-2.356h-2.271V34.395z"/>
		</g>
		<g>
			<path fill="#FFFFFF" d="M96.909,38.719c-0.196-0.084-0.406-0.147-0.631-0.189c-0.224-0.042-0.504-0.063-0.84-0.063
				c-0.364,0-0.703,0.063-1.019,0.189c-0.314,0.126-0.588,0.304-0.818,0.535c-0.231,0.231-0.413,0.504-0.546,0.819
				c-0.134,0.315-0.2,0.661-0.2,1.04v6.867h-2.646V36.346h2.541v1.68h0.042c0.308-0.588,0.717-1.057,1.229-1.407
				c0.511-0.35,1.179-0.525,2.005-0.525c0.294,0,0.589,0.021,0.883,0.063s0.546,0.098,0.756,0.168L96.909,38.719z"/>
			<path fill="#FFFFFF" d="M93.105,48.167h-3.146V36.096H93v1.145c0.253-0.323,0.547-0.601,0.879-0.828
				c0.552-0.377,1.273-0.568,2.146-0.568c0.305,0,0.614,0.022,0.918,0.065c0.307,0.044,0.575,0.104,0.8,0.178l0.233,0.078
				l-0.913,2.892l-0.254-0.108c-0.179-0.077-0.373-0.135-0.578-0.173c-0.423-0.08-1.16-0.11-1.72,0.112
				c-0.282,0.113-0.529,0.275-0.734,0.48c-0.207,0.206-0.372,0.455-0.492,0.74c-0.12,0.282-0.181,0.599-0.181,0.942V48.167z
				 M90.459,47.667h2.146V41.05c0-0.411,0.074-0.793,0.22-1.137c0.146-0.344,0.348-0.646,0.6-0.898
				c0.253-0.253,0.557-0.452,0.902-0.59c0.65-0.261,1.493-0.235,1.997-0.14c0.146,0.027,0.289,0.063,0.426,0.108l0.6-1.898
				c-0.143-0.035-0.302-0.065-0.476-0.09c-0.281-0.04-0.566-0.061-0.848-0.061c-0.771,0-1.397,0.162-1.863,0.481
				c-0.476,0.325-0.861,0.768-1.148,1.316l-0.07,0.134h-0.401l-0.042-0.25v-1.43h-2.041V47.667z"/>
		</g>
		<g>
			<path fill="#FFFFFF" d="M108.815,46.846c-0.56,0.378-1.218,0.679-1.974,0.903c-0.756,0.224-1.681,0.336-2.772,0.336
				c-0.672,0-1.323-0.087-1.953-0.262c-0.63-0.175-1.193-0.469-1.69-0.882c-0.497-0.413-0.896-0.966-1.196-1.659
				c-0.302-0.693-0.452-1.558-0.452-2.594v-1.197c0-0.938,0.137-1.747,0.41-2.426c0.272-0.679,0.646-1.239,1.123-1.68
				c0.476-0.441,1.032-0.767,1.67-0.977c0.637-0.21,1.326-0.315,2.068-0.315c0.728,0,1.403,0.105,2.026,0.315
				s1.158,0.528,1.606,0.956s0.798,0.959,1.05,1.596c0.252,0.637,0.378,1.375,0.378,2.216v1.911h-7.749
				c0,0.924,0.245,1.621,0.735,2.09c0.489,0.469,1.197,0.703,2.121,0.703c0.686,0,1.295-0.073,1.827-0.22
				c0.531-0.147,1.092-0.389,1.68-0.725L108.815,46.846z M106.568,41.092v-0.504c0-0.308-0.046-0.602-0.137-0.882
				c-0.091-0.28-0.241-0.525-0.451-0.735s-0.476-0.378-0.798-0.504s-0.714-0.189-1.176-0.189c-0.882,0-1.544,0.231-1.984,0.693
				c-0.441,0.462-0.662,1.022-0.662,1.68v0.441H106.568z"/>
			<path fill="#FFFFFF" d="M104.069,48.335c-0.691,0-1.371-0.091-2.02-0.271c-0.662-0.184-1.262-0.497-1.784-0.931
				c-0.524-0.436-0.95-1.025-1.266-1.751c-0.313-0.721-0.473-1.627-0.473-2.693v-1.197c0-0.966,0.145-1.813,0.429-2.519
				c0.285-0.711,0.684-1.306,1.185-1.77c0.5-0.463,1.093-0.81,1.762-1.03c1.307-0.431,2.948-0.439,4.253,0
				c0.654,0.221,1.227,0.561,1.699,1.011c0.472,0.45,0.845,1.017,1.109,1.685c0.263,0.664,0.396,1.44,0.396,2.308v2.161h-7.742
				c0.04,0.726,0.259,1.283,0.651,1.659c0.438,0.42,1.094,0.634,1.948,0.634c0.661,0,1.253-0.071,1.761-0.211
				c0.509-0.141,1.055-0.376,1.622-0.701l0.217-0.124l1.331,2.33l-0.192,0.13c-0.577,0.39-1.265,0.705-2.042,0.936
				C106.136,48.218,105.179,48.335,104.069,48.335z M104.048,36.344c-0.712,0-1.382,0.102-1.99,0.302
				c-0.6,0.198-1.131,0.508-1.578,0.922c-0.446,0.414-0.804,0.948-1.061,1.59c-0.261,0.646-0.393,1.431-0.393,2.333v1.197
				c0,0.997,0.146,1.836,0.432,2.494c0.284,0.654,0.663,1.181,1.127,1.566c0.467,0.388,1.004,0.669,1.598,0.834
				c0.604,0.168,1.239,0.253,1.886,0.253c1.063,0,1.971-0.109,2.701-0.326c0.643-0.19,1.217-0.44,1.71-0.745l-0.852-1.491
				c-0.525,0.283-1.035,0.494-1.519,0.627c-0.551,0.152-1.188,0.229-1.894,0.229c-0.987,0-1.76-0.26-2.294-0.772
				c-0.539-0.516-0.813-1.28-0.813-2.271v-0.25h7.749v-1.661c0-0.805-0.121-1.519-0.36-2.124c-0.237-0.6-0.57-1.107-0.99-1.506
				c-0.419-0.4-0.929-0.703-1.514-0.9C105.401,36.446,104.746,36.344,104.048,36.344z M106.818,41.342h-5.708v-0.691
				c0-0.721,0.246-1.345,0.731-1.853c0.487-0.511,1.216-0.77,2.165-0.77c0.491,0,0.917,0.069,1.267,0.206
				c0.353,0.138,0.65,0.326,0.884,0.56c0.237,0.237,0.409,0.518,0.512,0.834c0.1,0.305,0.149,0.627,0.149,0.959V41.342z
				 M101.61,40.842h4.708v-0.254c0-0.279-0.042-0.55-0.125-0.805c-0.078-0.241-0.209-0.455-0.39-0.635
				c-0.185-0.185-0.424-0.335-0.712-0.448c-0.292-0.114-0.657-0.172-1.085-0.172c-0.808,0-1.414,0.207-1.804,0.615
				c-0.398,0.418-0.593,0.911-0.593,1.507V40.842z"/>
		</g>
		<g>
			<path fill="#FFFFFF" d="M116.228,36.094c0.546,0,1.028,0.039,1.448,0.115c0.421,0.077,0.799,0.179,1.135,0.305
				s0.637,0.273,0.902,0.441c0.267,0.168,0.511,0.336,0.735,0.504l-1.281,1.932c-0.476-0.378-0.948-0.637-1.417-0.777
				c-0.47-0.14-0.977-0.21-1.522-0.21c-0.336,0-0.658,0.052-0.967,0.157c-0.308,0.105-0.581,0.273-0.818,0.504
				c-0.238,0.231-0.428,0.532-0.567,0.903s-0.21,0.822-0.21,1.354v1.407c0,0.588,0.081,1.078,0.241,1.47
				c0.161,0.392,0.368,0.704,0.62,0.935s0.532,0.392,0.84,0.483c0.308,0.091,0.609,0.136,0.903,0.136
				c0.728,0,1.333-0.087,1.816-0.262c0.482-0.175,0.927-0.417,1.333-0.725l1.261,1.932c-0.393,0.364-0.967,0.686-1.723,0.966
				c-0.756,0.28-1.659,0.42-2.709,0.42c-1.708,0-3.01-0.472-3.906-1.417c-0.896-0.945-1.344-2.243-1.344-3.896v-1.449
				c0-1.652,0.466-2.937,1.396-3.854S114.603,36.094,116.228,36.094z"/>
			<path fill="#FFFFFF" d="M116.249,48.335c-1.771,0-3.146-0.503-4.088-1.496c-0.937-0.989-1.412-2.357-1.412-4.067v-1.449
				c0-1.713,0.495-3.07,1.471-4.032c0.975-0.96,2.323-1.447,4.009-1.447c0.557,0,1.06,0.04,1.493,0.119
				c0.433,0.08,0.829,0.186,1.178,0.317c0.351,0.131,0.669,0.287,0.948,0.463c0.272,0.172,0.521,0.343,0.751,0.515l0.189,0.142
				l-1.563,2.356l-0.213-0.169c-0.448-0.356-0.896-0.603-1.333-0.733c-0.708-0.211-1.581-0.312-2.338-0.056
				c-0.271,0.093-0.515,0.243-0.724,0.446c-0.212,0.205-0.383,0.478-0.508,0.812c-0.129,0.342-0.194,0.768-0.194,1.267v1.407
				c0,0.551,0.075,1.014,0.223,1.375c0.146,0.355,0.334,0.64,0.558,0.845c0.223,0.204,0.472,0.348,0.741,0.427
				c0.282,0.083,0.563,0.126,0.833,0.126c0.696,0,1.278-0.083,1.731-0.247c0.456-0.166,0.882-0.397,1.267-0.689l0.214-0.162
				l1.522,2.333l-0.154,0.143c-0.414,0.384-1.021,0.726-1.806,1.017C118.263,48.188,117.323,48.335,116.249,48.335z M116.228,36.344
				c-1.549,0-2.779,0.438-3.657,1.304c-0.878,0.864-1.322,2.101-1.322,3.675v1.449c0,1.578,0.429,2.831,1.275,3.724
				c0.843,0.889,2.096,1.339,3.725,1.339c1.015,0,1.897-0.136,2.622-0.404c0.624-0.231,1.121-0.493,1.48-0.778l-0.998-1.53
				c-0.366,0.25-0.763,0.452-1.182,0.604c-0.507,0.184-1.146,0.277-1.901,0.277c-0.319,0-0.646-0.049-0.975-0.146
				c-0.343-0.101-0.658-0.282-0.938-0.539c-0.278-0.255-0.508-0.6-0.683-1.023c-0.173-0.423-0.26-0.949-0.26-1.565v-1.407
				c0-0.559,0.076-1.044,0.226-1.442c0.152-0.404,0.363-0.739,0.628-0.995c0.262-0.255,0.569-0.444,0.911-0.561
				c0.855-0.288,1.838-0.189,2.642,0.05c0.426,0.127,0.857,0.348,1.284,0.657l1.002-1.511c-0.165-0.118-0.341-0.236-0.527-0.354
				c-0.251-0.158-0.539-0.299-0.857-0.418c-0.32-0.12-0.688-0.219-1.092-0.292C117.227,36.382,116.755,36.344,116.228,36.344z"/>
		</g>
		<g>
			<path fill="#FFFFFF" d="M123.409,38.53h-1.848v-2.184h1.848v-2.961h2.646v2.961h2.919v2.184h-2.919v6.09
				c0,0.49,0.102,0.812,0.305,0.966c0.202,0.154,0.479,0.231,0.829,0.231c0.266,0,0.528-0.024,0.788-0.073
				c0.259-0.049,0.542-0.137,0.85-0.263l0.421,2.121c-0.238,0.112-0.564,0.221-0.977,0.326c-0.413,0.105-0.879,0.157-1.396,0.157
				c-0.658,0-1.212-0.077-1.659-0.231c-0.448-0.154-0.806-0.378-1.071-0.672s-0.455-0.654-0.567-1.082
				c-0.111-0.427-0.168-0.914-0.168-1.459V38.53z"/>
			<path fill="#FFFFFF" d="M126.875,48.335c-0.683,0-1.269-0.083-1.74-0.245c-0.487-0.168-0.883-0.417-1.176-0.741
				c-0.292-0.323-0.502-0.722-0.624-1.186c-0.116-0.448-0.176-0.96-0.176-1.523V38.78h-1.848v-2.684h1.848v-2.961h3.146v2.961h2.919
				v2.684h-2.919v5.84c0,0.394,0.073,0.666,0.206,0.767c0.29,0.222,0.897,0.211,1.419,0.111c0.24-0.045,0.51-0.129,0.802-0.249
				l0.281-0.115l0.518,2.61l-0.177,0.083c-0.252,0.118-0.596,0.233-1.021,0.341C127.902,48.279,127.412,48.335,126.875,48.335z
				 M121.811,38.28h1.848v6.361c0,0.52,0.054,0.99,0.16,1.396c0.101,0.385,0.272,0.714,0.511,0.977
				c0.235,0.26,0.561,0.463,0.967,0.603c0.42,0.144,0.95,0.217,1.578,0.217c0.495,0,0.944-0.05,1.335-0.149
				c0.299-0.076,0.552-0.155,0.753-0.233l-0.323-1.632c-0.218,0.077-0.424,0.133-0.616,0.169c-0.659,0.126-1.398,0.113-1.814-0.205
				c-0.271-0.205-0.403-0.586-0.403-1.165v-6.34h2.919v-1.684h-2.919v-2.961h-2.146v2.961h-1.848V38.28z"/>
		</g>
		<g>
			<path fill="#FFFFFF" d="M137.248,32.545c1.064,0,2.006,0.126,2.825,0.378c0.818,0.252,1.613,0.687,2.383,1.302l-1.448,2.058
				c-0.616-0.518-1.226-0.857-1.827-1.019c-0.603-0.161-1.246-0.242-1.933-0.242c-0.448,0-0.889,0.067-1.322,0.2
				c-0.435,0.133-0.819,0.375-1.155,0.725s-0.609,0.826-0.819,1.428c-0.21,0.602-0.314,1.372-0.314,2.31v1.554
				c0,0.798,0.098,1.477,0.294,2.037c0.195,0.561,0.458,1.016,0.787,1.365c0.329,0.35,0.711,0.605,1.145,0.767
				s0.889,0.241,1.365,0.241c0.7,0,1.417-0.108,2.152-0.325c0.735-0.217,1.403-0.633,2.006-1.25l1.428,2.058
				c-0.448,0.448-0.921,0.801-1.418,1.06c-0.497,0.259-0.99,0.462-1.48,0.609s-0.973,0.241-1.448,0.283
				c-0.477,0.042-0.925,0.063-1.345,0.063c-0.826,0-1.613-0.119-2.362-0.357c-0.749-0.238-1.407-0.616-1.974-1.134
				c-0.567-0.518-1.019-1.176-1.354-1.974s-0.504-1.764-0.504-2.898v-2.709c0-1.134,0.164-2.11,0.493-2.93
				c0.329-0.819,0.78-1.498,1.354-2.037c0.574-0.539,1.242-0.934,2.006-1.187C135.543,32.671,136.366,32.545,137.248,32.545z"/>
			<path fill="#FFFFFF" d="M137.122,48.398c-0.848,0-1.667-0.124-2.438-0.369c-0.782-0.249-1.478-0.648-2.067-1.188
				c-0.591-0.54-1.067-1.233-1.416-2.062c-0.348-0.825-0.523-1.833-0.523-2.995v-2.709c0-1.161,0.172-2.178,0.511-3.023
				c0.342-0.849,0.817-1.564,1.416-2.126s1.305-0.979,2.099-1.242c0.784-0.259,1.641-0.391,2.545-0.391
				c1.084,0,2.06,0.131,2.898,0.389c0.846,0.261,1.676,0.713,2.466,1.346l0.184,0.147l-1.74,2.473l-0.209-0.175
				c-0.584-0.492-1.167-0.817-1.73-0.968c-0.95-0.253-2.065-0.368-3.117-0.044c-0.392,0.12-0.744,0.341-1.048,0.658
				c-0.31,0.323-0.567,0.773-0.764,1.337c-0.199,0.572-0.301,1.321-0.301,2.228v1.554c0,0.767,0.094,1.424,0.28,1.954
				c0.183,0.524,0.429,0.954,0.732,1.276c0.301,0.32,0.654,0.557,1.05,0.704c1.014,0.377,2.185,0.258,3.359-0.089
				c0.69-0.203,1.329-0.602,1.898-1.185l0.212-0.216l1.719,2.479l-0.147,0.147c-0.465,0.464-0.962,0.836-1.479,1.105
				c-0.509,0.266-1.021,0.477-1.523,0.627c-0.504,0.151-1.008,0.25-1.498,0.293C138.006,48.376,137.546,48.398,137.122,48.398z
				 M137.248,32.795c-0.851,0-1.654,0.123-2.389,0.365c-0.724,0.24-1.368,0.62-1.913,1.131c-0.544,0.512-0.979,1.167-1.293,1.948
				c-0.315,0.785-0.476,1.739-0.476,2.836v2.709c0,1.095,0.163,2.038,0.484,2.801c0.32,0.761,0.756,1.396,1.293,1.887
				c0.535,0.49,1.168,0.854,1.881,1.08c1.092,0.347,2.234,0.404,3.609,0.283c0.456-0.041,0.927-0.132,1.397-0.273
				c0.473-0.142,0.956-0.341,1.438-0.592c0.417-0.217,0.822-0.51,1.207-0.87l-1.139-1.642c-0.575,0.531-1.213,0.902-1.898,1.104
				c-1.28,0.378-2.563,0.491-3.675,0.079c-0.469-0.174-0.886-0.454-1.24-0.83c-0.352-0.375-0.635-0.864-0.841-1.455
				c-0.204-0.582-0.308-1.295-0.308-2.119v-1.554c0-0.962,0.11-1.768,0.328-2.393c0.221-0.632,0.516-1.144,0.875-1.518
				c0.364-0.379,0.789-0.646,1.263-0.791c1.138-0.351,2.353-0.238,3.393,0.039c0.565,0.152,1.141,0.453,1.712,0.898l1.157-1.645
				c-0.684-0.518-1.395-0.892-2.114-1.114C139.208,32.918,138.282,32.795,137.248,32.795z"/>
		</g>
		<g>
			<path fill="#FFFFFF" d="M148.294,48.085c-1.246,0-2.212-0.283-2.898-0.851c-0.686-0.567-1.028-1.361-1.028-2.383v-0.672
				c0-0.476,0.073-0.914,0.22-1.313c0.147-0.399,0.393-0.746,0.735-1.04s0.795-0.525,1.354-0.693s1.246-0.252,2.059-0.252h2.646
				v-0.441c0-0.714-0.165-1.229-0.493-1.543c-0.329-0.315-0.851-0.472-1.564-0.472c-1.204,0-2.297,0.385-3.276,1.155l-1.302-1.932
				c0.588-0.406,1.253-0.766,1.995-1.082c0.741-0.315,1.609-0.472,2.604-0.472c0.672,0,1.295,0.084,1.869,0.252
				s1.067,0.409,1.48,0.725c0.413,0.315,0.735,0.7,0.966,1.155c0.231,0.455,0.347,0.977,0.347,1.564v8.127h-2.373l-0.042-1.428
				c-0.112,0.252-0.291,0.479-0.535,0.682c-0.245,0.203-0.522,0.371-0.83,0.504c-0.308,0.133-0.63,0.234-0.966,0.304
				C148.924,48.05,148.602,48.085,148.294,48.085z M151.381,42.94h-2.583c-0.7,0-1.187,0.133-1.459,0.399
				c-0.273,0.266-0.41,0.624-0.41,1.071v0.252c0,0.378,0.133,0.672,0.399,0.882c0.266,0.21,0.657,0.315,1.176,0.315
				c1.078,0,1.876-0.259,2.394-0.777c0.238-0.238,0.379-0.494,0.421-0.767s0.063-0.626,0.063-1.061V42.94z"/>
			<path fill="#FFFFFF" d="M148.294,48.335c-1.3,0-2.329-0.306-3.058-0.908c-0.742-0.614-1.119-1.481-1.119-2.576v-0.672
				c0-0.503,0.079-0.974,0.235-1.398c0.162-0.438,0.434-0.823,0.807-1.144c0.368-0.315,0.854-0.565,1.445-0.742
				c0.581-0.174,1.298-0.263,2.131-0.263h2.396v-0.191c0-0.639-0.14-1.098-0.416-1.363c-0.279-0.267-0.747-0.402-1.392-0.402
				c-1.142,0-2.191,0.371-3.122,1.102l-0.211,0.166l-1.591-2.36l0.204-0.14c0.598-0.413,1.284-0.785,2.039-1.106
				c0.769-0.327,1.677-0.492,2.701-0.492c0.692,0,1.345,0.088,1.939,0.262c0.602,0.176,1.127,0.434,1.562,0.766
				c0.441,0.336,0.791,0.754,1.037,1.24c0.248,0.488,0.374,1.052,0.374,1.678v8.377h-2.866l-0.027-0.935
				c-0.046,0.045-0.096,0.089-0.147,0.132c-0.261,0.216-0.561,0.398-0.89,0.542c-0.32,0.138-0.661,0.246-1.015,0.319
				C148.959,48.298,148.618,48.335,148.294,48.335z M148.736,41.132c-0.785,0-1.453,0.081-1.986,0.241
				c-0.524,0.158-0.95,0.374-1.264,0.644c-0.309,0.264-0.532,0.58-0.664,0.937c-0.136,0.369-0.204,0.781-0.204,1.226v0.672
				c0,0.952,0.307,1.669,0.938,2.19c0.637,0.526,1.559,0.793,2.739,0.793c0.289,0,0.597-0.034,0.915-0.1
				c0.319-0.067,0.629-0.165,0.918-0.289c0.285-0.124,0.545-0.281,0.77-0.467c0.213-0.177,0.37-0.376,0.466-0.591l0.446-1.001
				l0.067,2.28h1.88V39.79c0-0.546-0.107-1.034-0.319-1.451c-0.213-0.419-0.514-0.779-0.895-1.069
				c-0.387-0.295-0.857-0.525-1.399-0.684c-0.549-0.16-1.154-0.242-1.799-0.242c-0.956,0-1.8,0.152-2.506,0.452
				c-0.639,0.271-1.225,0.58-1.745,0.919l1.015,1.506c0.967-0.695,2.047-1.047,3.216-1.047c0.777,0,1.361,0.182,1.737,0.542
				c0.379,0.363,0.57,0.943,0.57,1.724v0.691H148.736z M148.504,46.109c-0.573,0-1.021-0.124-1.331-0.369
				c-0.328-0.258-0.494-0.621-0.494-1.078V44.41c0-0.516,0.163-0.937,0.485-1.25c0.324-0.316,0.859-0.47,1.634-0.47h2.833v0.565
				c0,0.453-0.021,0.813-0.065,1.099c-0.05,0.325-0.216,0.63-0.491,0.905C150.511,45.823,149.646,46.109,148.504,46.109z
				 M148.798,43.19c-0.629,0-1.062,0.11-1.284,0.328c-0.226,0.219-0.335,0.511-0.335,0.892v0.252c0,0.3,0.1,0.524,0.304,0.686
				c0.22,0.173,0.563,0.261,1.021,0.261c1.005,0,1.75-0.237,2.217-0.704c0.199-0.199,0.317-0.41,0.351-0.628
				c0.039-0.257,0.06-0.601,0.06-1.022V43.19H148.798z"/>
		</g>
		<g>
			<path fill="#FFFFFF" d="M163.688,38.719c-0.196-0.084-0.406-0.147-0.631-0.189c-0.224-0.042-0.504-0.063-0.84-0.063
				c-0.364,0-0.703,0.063-1.019,0.189c-0.314,0.126-0.588,0.304-0.818,0.535c-0.231,0.231-0.413,0.504-0.546,0.819
				c-0.134,0.315-0.2,0.661-0.2,1.04v6.867h-2.646V36.346h2.541v1.68h0.042c0.308-0.588,0.717-1.057,1.229-1.407
				c0.511-0.35,1.179-0.525,2.005-0.525c0.294,0,0.589,0.021,0.883,0.063s0.546,0.098,0.756,0.168L163.688,38.719z"/>
			<path fill="#FFFFFF" d="M159.884,48.167h-3.146V36.096h3.041v1.145c0.253-0.323,0.547-0.601,0.879-0.828
				c0.552-0.377,1.273-0.568,2.146-0.568c0.305,0,0.614,0.022,0.918,0.065c0.307,0.044,0.575,0.104,0.8,0.178l0.233,0.078
				l-0.913,2.892l-0.254-0.108c-0.179-0.077-0.373-0.135-0.578-0.173c-0.423-0.08-1.16-0.11-1.72,0.112
				c-0.282,0.113-0.529,0.275-0.734,0.48c-0.207,0.206-0.372,0.455-0.492,0.74c-0.12,0.282-0.181,0.599-0.181,0.942V48.167z
				 M157.239,47.667h2.146V41.05c0-0.411,0.074-0.793,0.22-1.137c0.146-0.344,0.348-0.646,0.6-0.898
				c0.253-0.253,0.557-0.452,0.902-0.59c0.649-0.261,1.493-0.235,1.997-0.14c0.146,0.027,0.289,0.063,0.426,0.108l0.6-1.898
				c-0.143-0.035-0.302-0.065-0.476-0.09c-0.281-0.04-0.566-0.061-0.848-0.061c-0.771,0-1.397,0.162-1.863,0.481
				c-0.476,0.325-0.861,0.768-1.148,1.316l-0.07,0.134h-0.401l-0.042-0.25v-1.43h-2.041V47.667z"/>
		</g>
	</g>
	<path fill="#FFFFFF" d="M59.113,29.515c0-1.31-0.61-2.463-1.549-3.233l-0.002-0.067l-1.796-1.797L32.603,1.255h-0.006
		C31.832,0.481,30.771,0,29.597,0c-1.142,0-2.173,0.458-2.933,1.194l-0.092,0.092l-1.964,1.963l-5.106,5.106L3.352,24.506
		l-0.688,0.687l-1.496,1.556v0.015c-0.719,0.751-1.17,1.759-1.17,2.883c0,1.088,0.423,2.071,1.1,2.819l0.299,0.299l6.816,6.815v0
		l0.801,0.801l0.303,0.302c0.748,0.676,1.729,1.099,2.816,1.099c1.173,0,2.233-0.48,2.998-1.253l0.03-0.001l14.411-14.412
		l3.526,3.526L15.688,47.055l5.105,5.106l17.412-17.412l0.115-0.115l0.404-0.404l1.434-1.434l0.328-0.328
		c0.669-0.747,1.088-1.723,1.088-2.804c0-1.172-0.487-2.223-1.261-2.986l-0.001-0.037l-1.037-1.036v0l-6.703-6.703H32.56
		c-0.764-0.761-1.815-1.231-2.979-1.231c-1.212,0-2.295,0.519-3.063,1.337l-0.037,0.001l0.01-0.024l-0.023,0.024L12.161,33.315
		l-3.703-3.703l16.151-16.151l1.173-1.173l3.821-3.821l21.056,21.057L24.408,55.775l5.106,5.106l28.252-28.251l0.004-0.004
		l0.02-0.02l-0.001-0.038C58.6,31.801,59.113,30.721,59.113,29.515z"/>
</g>
</svg>
